<svg id="Capa_1" enable-background="new 0 0 496.992 496.992" height="512" viewBox="0 0 496.992 496.992" width="512" xmlns="http://www.w3.org/2000/svg"><g><path d="m494.74 214.376-246.244 34.112-197.909 197.909c82.985 82.985 238.865 61.651 348.167-47.651 54.772-54.772 87.45-121.239 95.986-184.37z" fill="#1da575"/><g fill="#0abf52"><path d="m446.405 50.579 21.937 188.461c8.635-7.504 17.427-15.692 26.398-24.663 8.497-62.853-6.934-122.397-48.335-163.798z"/><path d="m423.189 31.318-246.288 7.155c-27.651 15.437-54.314 35.407-78.664 59.757-54.772 54.772-87.449 121.239-95.985 184.37l106.066 106.066 338.087-338.087c-7.211-7.211-14.983-13.615-23.216-19.261z"/><path d="m468.342 239.039-105.199-105.198-312.556 312.556c71.269 71.27 217.652 40.438 326.954-68.864 42.731-42.732 73.468-91.131 90.801-138.494z"/></g><path d="m446.405 50.579c-169.044 169.043-275.11 62.977-444.153 232.021-8.498 62.852 6.934 122.396 48.335 163.797 160.072-160.072 263.676-73.468 417.755-207.358 27.001-73.784 21.469-145.054-21.937-188.46z" fill="#5cc563"/><path d="m423.189 31.318c-65.41-44.858-160.599-40.684-246.288 7.155 71 61.411 178.09 59.022 246.288-7.155z" fill="#5cc563"/><circle cx="55.89" cy="398.667" fill="#0abf52" r="7.5"/><circle cx="55.89" cy="356.241" fill="#0abf52" r="7.5"/><circle cx="375.419" cy="375.411" fill="#5cc563" r="7.5"/></g></svg>